<svg width="350" height="181.96147054671349" viewBox="0 0 350 181.96147054671349" class="css-1j8o68f">
  <defs id="SvgjsDefs1473"></defs>
  <g id="SvgjsG1474" featurekey="1p4tPl-0"
    transform="matrix(1.4564953791119502,0,0,1.4564953791119502,101.9796235994211,-11.004361974305088)" fill="#ffebb7">
    <g xmlns="http://www.w3.org/2000/svg">
      <path
        d="M3.455,59.074C3.997,31.037,33.352,10.67,65.767,7.953c7.893-0.659,21.247-0.844,31.131,2.25l-9.352,17.253   c-6.528-1.661-14.235-2.134-21.918-1.797c-33.064,1.144-53.872,20.544-54.336,40.159c-0.244,10.416,4.785,20.447,14.77,26.248   l-0.652,0.557C10.918,85.411,3.16,74.064,3.455,59.074z">
      </path>
      <path
        d="M18.844,65.656c3.279-16.372,21.514-28.878,50.168-27.383c3.968,0.209,8.473,0.598,12.494,1.479l-8.283,15.273   c-2.578-0.354-6.603-1.071-10.058-1.257C40.59,52.587,26.7,61.927,24.396,73.837c-1.237,6.395,1.385,13.541,7.928,18.034   l-0.656,0.504C20.464,86.175,16.835,75.665,18.844,65.656z">
      </path>
      <path
        d="M32.375,73.946c5.484-9.222,22.011-12.208,36.767-8.624l-4.326,7.93c-11.73-2.699-25.31-0.866-29.202,5.896   c-2.116,3.68-0.936,8.737,1.454,12.306l-0.438,0.441C31.113,86.96,29.106,79.448,32.375,73.946z">
      </path>
    </g>
  </g>
  <g id="SvgjsG1475" featurekey="dYASrj-0"
    transform="matrix(2.6072437810900033,0,0,2.6072437810900033,-1.0914623933222796,129.086564875956)" fill="#fff4e1">
    <path
      d="M5.58 20.28 c-2.62 0 -4.92 -1.26 -5.16 -4.16 c-0.02 -0.34 0.18 -0.52 0.5 -0.52 l2.2 0 c0.3 0 0.46 0.16 0.52 0.48 c0.16 0.72 0.76 1.08 1.94 1.08 c1.3 0 1.72 -0.5 1.72 -1.08 c0 -0.82 -1 -1.18 -2.22 -1.6 c-1.98 -0.68 -4.48 -1.5 -4.48 -4.56 c0 -2.8 2.28 -4.2 4.66 -4.2 c2.34 0 4.58 1.26 4.82 4.16 c0.02 0.34 -0.18 0.52 -0.5 0.52 l-2.2 0 c-0.3 0 -0.46 -0.16 -0.52 -0.48 c-0.16 -0.74 -0.68 -1.08 -1.6 -1.08 c-1 0 -1.46 0.5 -1.46 1.08 c0 0.84 0.82 1.24 1.98 1.66 c2 0.7 4.72 1.42 4.72 4.5 c0 2.8 -2.24 4.2 -4.92 4.2 z M25.6 6 c0.32 0 0.5 0.18 0.5 0.5 l0 13 c0 0.32 -0.18 0.5 -0.5 0.5 l-2.2 0 c-0.32 0 -0.5 -0.18 -0.5 -0.5 l0 -8.0828 l-2.54 6.0228 c-0.1 0.26 -0.3 0.38 -0.58 0.38 l-1.36 0 c-0.28 0 -0.48 -0.12 -0.58 -0.38 l-2.54 -6.0228 l0 8.0828 c0 0.32 -0.18 0.5 -0.5 0.5 l-2.2 0 c-0.32 0 -0.5 -0.18 -0.5 -0.5 l0 -13 c0 -0.32 0.18 -0.5 0.5 -0.5 l2.2 0 l0.48 0 c0.28 0 0.48 0.12 0.58 0.38 l3.24 7.7 l3.24 -7.7 c0.1 -0.26 0.3 -0.38 0.58 -0.38 l1.62 0 l1.06 0 z M32.879999999999995 20.28 c-2.62 0 -4.92 -1.26 -5.16 -4.16 c-0.02 -0.34 0.18 -0.52 0.5 -0.52 l2.2 0 c0.3 0 0.46 0.16 0.52 0.48 c0.16 0.72 0.76 1.08 1.94 1.08 c1.3 0 1.72 -0.5 1.72 -1.08 c0 -0.82 -1 -1.18 -2.22 -1.6 c-1.98 -0.68 -4.48 -1.5 -4.48 -4.56 c0 -2.8 2.28 -4.2 4.66 -4.2 c2.34 0 4.58 1.26 4.82 4.16 c0.02 0.34 -0.18 0.52 -0.5 0.52 l-2.2 0 c-0.3 0 -0.46 -0.16 -0.52 -0.48 c-0.16 -0.74 -0.68 -1.08 -1.6 -1.08 c-1 0 -1.46 0.5 -1.46 1.08 c0 0.84 0.82 1.24 1.98 1.66 c2 0.7 4.72 1.42 4.72 4.5 c0 2.8 -2.24 4.2 -4.92 4.2 z M52.199999999999996 9.08 l-4.6 0 l0 2.9 l4.5 0 c0.32 0 0.5 0.18 0.5 0.5 l0 2.08 c0 0.32 -0.18 0.5 -0.5 0.5 l-4.5 0 l0 4.44 c0 0.32 -0.18 0.5 -0.5 0.5 l-2.2 0 c-0.32 0 -0.5 -0.18 -0.5 -0.5 l0 -13 c0 -0.32 0.18 -0.5 0.5 -0.5 l2.7 0 l4.6 0 c0.32 0 0.5 0.18 0.5 0.5 l0 2.08 c0 0.32 -0.18 0.5 -0.5 0.5 z M59.199999999999996 20.28 c-2.94 0 -5.3 -2.3 -5.3 -5.28 s2.36 -5.28 5.3 -5.28 s5.3 2.3 5.3 5.28 s-2.36 5.28 -5.3 5.28 z M59.199999999999996 17.36 c1.3 0 2.3 -0.94 2.3 -2.36 s-1 -2.36 -2.3 -2.36 s-2.3 0.94 -2.3 2.36 s1 2.36 2.3 2.36 z M71.28 9.84 c0.34 -0.06 0.52 0.1598 0.52 0.4798 l0 2.36 c0 0.32 -0.14 0.48 -0.4 0.48 c-1.12 -0.04 -2.2 0.52 -2.2 2.12 l0 4.22 c0 0.32 -0.18 0.5 -0.5 0.5 l-2 0 c-0.32 0 -0.5 -0.18 -0.5 -0.5 l0 -9 c0 -0.32 0.18 -0.5 0.5 -0.5 l2 0 c0.32 0 0.5 0.18 0.5 0.5 l0 1.081 c0.2984 -1.004 1.0864 -1.5918 2.08 -1.7408 z M86 10 c0.36 0 0.5198 0.22 0.4198 0.56 l-2.88 9.02 c-0.08 0.28 -0.3 0.42 -0.58 0.42 l-1.68 0 l-0.24 0 c-0.28 0 -0.5 -0.14 -0.58 -0.42 l-1.0622 -3.3266 l-1.0578 3.3266 c-0.08 0.28 -0.3 0.42 -0.58 0.42 l-1.26 0 l-0.66 0 c-0.28 0 -0.5 -0.14 -0.58 -0.42 l-2.88 -9.02 c-0.1 -0.34 0.06 -0.56 0.42 -0.56 l2.16 0 c0.28 0 0.48 0.12 0.56 0.42 l1.5558 5.7986 l1.1368 -3.6778 l-0.6324 -1.9808 c-0.1 -0.34 0.06 -0.56 0.42 -0.56 l1.56 0 c0.28 0 0.48 0.14 0.56 0.42 l1.695 5.4604 l1.465 -5.4604 c0.08 -0.3 0.26 -0.42 0.56 -0.42 l2.16 0 z M92.03999999999999 9.72 c2.2 0 4.16 1.28 4.16 3.98 l0 5.8 c0 0.32 -0.18 0.5 -0.5 0.5 l-1.92 0 c-0.32 0 -0.5 -0.18 -0.5 -0.5 l0 -0.28561 c-0.5362 0.6276 -1.3234 1.0656 -2.58 1.0656 c-1.76 0 -3.3 -1.04 -3.3 -3.12 s1.54 -3.12 3.3 -3.12 c1.2566 0 2.0438 0.3546 2.58 0.76262 l0 -0.9026 c0 -0.98 -0.4 -1.42 -1.24 -1.42 c-0.62 0 -1 0.24 -1.16 0.58 c-0.12 0.28 -0.22 0.44 -0.52 0.44 l-1.96 0 c-0.32 0 -0.52 -0.18 -0.5 -0.52 c0.26 -2.16 2.1 -3.26 4.14 -3.26 z M91.75999999999999 18.16 c0.98 0 1.52 -0.42 1.52 -1 c0 -0.62 -0.54 -1 -1.52 -1 c-0.92 0 -1.36 0.42 -1.36 1 s0.44 1 1.36 1 z M103.22 9.84 c0.34 -0.06 0.52 0.1598 0.52 0.4798 l0 2.36 c0 0.32 -0.14 0.48 -0.4 0.48 c-1.12 -0.04 -2.2 0.52 -2.2 2.12 l0 4.22 c0 0.32 -0.18 0.5 -0.5 0.5 l-2 0 c-0.32 0 -0.5 -0.18 -0.5 -0.5 l0 -9 c0 -0.32 0.18 -0.5 0.5 -0.5 l2 0 c0.32 0 0.5 0.18 0.5 0.5 l0 1.081 c0.2984 -1.004 1.0864 -1.5918 2.08 -1.7408 z M114.8 6 c0.32 0 0.5 0.18 0.5 0.5 l0 13 c0 0.32 -0.18 0.5 -0.5 0.5 l-2 0 c-0.32 0 -0.5 -0.18 -0.5 -0.5 l0 -0.434 c-0.6686 0.7624 -1.6416 1.214 -2.9798 1.214 c-2.62 0 -4.78 -2.3 -4.78 -5.28 s2.16 -5.28 4.78 -5.28 c1.3382 0 2.3112 0.4516 2.9798 1.214 l0 -4.434 c0 -0.32 0.18 -0.5 0.5 -0.5 l2 0 z M109.92 17.44 c1.38 0 2.38 -0.94 2.38 -2.44 s-1 -2.44 -2.38 -2.44 s-2.38 0.94 -2.38 2.44 s1 2.44 2.38 2.44 z M122.36 9.72 c2.92 0 5.04 2.26 5.04 5.28 c0 0.26 -0.02 0.5 -0.04 0.74 c-0.04 0.32 -0.24 0.46 -0.54 0.46 l-2.44 0 l-4.2388 0 c0.3634 1.1882 1.2966 1.66 2.3388 1.66 c0.56 0 1.12 -0.2 1.48 -0.5 c0.2 -0.16 0.36 -0.26 0.62 -0.26 l1.92 -0.02 c0.36 0 0.56 0.24 0.4 0.56 c-0.78 1.74 -2.42 2.64 -4.46 2.64 c-3.32 0 -5.44 -2.3 -5.44 -5.28 s2.2 -5.28 5.36 -5.28 z M120.1286 13.92 l4.285 0 c-0.3092 -1.138 -1.1914 -1.54 -2.0736 -1.54 c-1.1244 0 -1.9024 0.5426 -2.2114 1.54 z M134.14000000000001 9.84 c0.34 -0.06 0.52 0.1598 0.52 0.4798 l0 2.36 c0 0.32 -0.14 0.48 -0.4 0.48 c-1.12 -0.04 -2.2 0.52 -2.2 2.12 l0 4.22 c0 0.32 -0.18 0.5 -0.5 0.5 l-2 0 c-0.32 0 -0.5 -0.18 -0.5 -0.5 l0 -9 c0 -0.32 0.18 -0.5 0.5 -0.5 l2 0 c0.32 0 0.5 0.18 0.5 0.5 l0 1.081 c0.2984 -1.004 1.0864 -1.5918 2.08 -1.7408 z">
    </path>
  </g>
</svg>
